# xmcd
#
# Track frame offsets:
#	150
#	7863
#	23179
#	39619
#	61745
#	79520
#	91840
#	108846
#	126101
#	148550
#	165352
#	184083
#	201737
#
# Disc length: 2751 seconds
#
# Revision: 0
# Processed by: cddbd v1.5.1PL0 Copyright (c) Steve Scherf et al.
# Submitted via: EasyCDDAExtractor 7.5.2.1
#
DISCID=9c0abd0d
DTITLE=Davee Brian - Is Anyone Driving This Bus?
DYEAR=2004
DGENRE=Blues
TTITLE0=Storm Cloud
TTITLE1=Let It Go
TTITLE2=One Last Compromise
TTITLE3=Starz
TTITLE4=Express Lane
TTITLE5=One Last One Night Stand
TTITLE6=Take It On The Run
TTITLE7=Is Anyone Driving This Bus?
TTITLE8=No Other Baby
TTITLE9=Hold It In The Road
TTITLE10=West Hartford Lady
TTITLE11=It's Getting Late
TTITLE12=Cloudy...reprise
EXTD=
EXTT0=
EXTT1=
EXTT2=
EXTT3=
EXTT4=
EXTT5=
EXTT6=
EXTT7=
EXTT8=
EXTT9=
EXTT10=
EXTT11=
EXTT12=
PLAYORDER=
